<svg width="25" height="24" viewBox="0 0 25 24" fill="none" xmlns="http://www.w3.org/2000/svg">
<g id="Outline / Messages, Conversation  /  Letter">
<path id="Vector" fill-rule="evenodd" clip-rule="evenodd" d="M9.95774 3.25H14.0706C15.9083 3.24998 17.364 3.24997 18.5032 3.40314C19.6756 3.56076 20.6246 3.89288 21.3729 4.64124C22.1213 5.38961 22.4534 6.33856 22.611 7.51098C22.7642 8.65019 22.7642 10.1058 22.7642 11.9436V12.0564C22.7642 13.8942 22.7642 15.3498 22.611 16.489C22.4534 17.6614 22.1213 18.6104 21.3729 19.3588C20.6246 20.1071 19.6756 20.4392 18.5032 20.5969C17.364 20.75 15.9083 20.75 14.0706 20.75H9.95775C8.11999 20.75 6.66435 20.75 5.52514 20.5969C4.35272 20.4392 3.40377 20.1071 2.6554 19.3588C1.90704 18.6104 1.57492 17.6614 1.4173 16.489C1.26413 15.3498 1.26414 13.8942 1.26416 12.0564V11.9436C1.26414 10.1058 1.26413 8.65019 1.4173 7.51098C1.57492 6.33856 1.90704 5.38961 2.6554 4.64124C3.40377 3.89288 4.35272 3.56076 5.52514 3.40314C6.66435 3.24997 8.11998 3.24998 9.95774 3.25ZM5.72501 4.88976C4.71892 5.02502 4.13927 5.27869 3.71606 5.7019C3.29285 6.12511 3.03918 6.70476 2.90392 7.71085C2.76575 8.73851 2.76416 10.0932 2.76416 12C2.76416 13.9068 2.76575 15.2615 2.90392 16.2892C3.03918 17.2952 3.29285 17.8749 3.71606 18.2981C4.13927 18.7213 4.71892 18.975 5.72501 19.1102C6.75267 19.2484 8.10734 19.25 10.0142 19.25H14.0142C15.921 19.25 17.2756 19.2484 18.3033 19.1102C19.3094 18.975 19.889 18.7213 20.3123 18.2981C20.7355 17.8749 20.9891 17.2952 21.1244 16.2892C21.2626 15.2615 21.2642 13.9068 21.2642 12C21.2642 10.0932 21.2626 8.73851 21.1244 7.71085C20.9891 6.70476 20.7355 6.12511 20.3123 5.7019C19.889 5.27869 19.3094 5.02502 18.3033 4.88976C17.2756 4.75159 15.921 4.75 14.0142 4.75H10.0142C8.10734 4.75 6.75267 4.75159 5.72501 4.88976ZM5.43799 7.51986C5.70317 7.20165 6.17609 7.15866 6.4943 7.42383L8.65319 9.22291C9.58615 10.0004 10.2339 10.5384 10.7807 10.8901C11.3101 11.2306 11.6691 11.3449 12.0142 11.3449C12.3592 11.3449 12.7182 11.2306 13.2476 10.8901C13.7944 10.5384 14.4422 10.0004 15.3751 9.22291L17.534 7.42383C17.8522 7.15866 18.3252 7.20165 18.5903 7.51986C18.8555 7.83807 18.8125 8.31099 18.4943 8.57617L16.2978 10.4066C15.4115 11.1452 14.693 11.7439 14.059 12.1517C13.3985 12.5765 12.7552 12.8449 12.0142 12.8449C11.2731 12.8449 10.6298 12.5765 9.96934 12.1517C9.33528 11.7439 8.61688 11.1452 7.73052 10.4066L5.53402 8.57617C5.21581 8.31099 5.17282 7.83807 5.43799 7.51986Z" fill="white"/>
</g>
</svg>
