<svg width="25" height="24" viewBox="0 0 25 24" fill="none" xmlns="http://www.w3.org/2000/svg">
<g id="Outline / Map &#38; Location / Map Point">
<path id="Vector" fill-rule="evenodd" clip-rule="evenodd" d="M3.26416 10.1433C3.26416 5.24427 7.16917 1.25 12.0142 1.25C16.8591 1.25 20.7642 5.24427 20.7642 10.1433C20.7642 12.5084 20.0901 15.0479 18.8986 17.2419C17.7085 19.4331 15.9698 21.3372 13.7947 22.3539C12.6647 22.882 11.3636 22.882 10.2336 22.3539C8.05853 21.3372 6.31978 19.4331 5.12972 17.2419C3.93819 15.0479 3.26416 12.5084 3.26416 10.1433ZM12.0142 2.75C8.02259 2.75 4.76416 6.04748 4.76416 10.1433C4.76416 12.2404 5.36679 14.5354 6.44786 16.526C7.5304 18.5192 9.06018 20.1496 10.8688 20.995C11.5962 21.335 12.4321 21.335 13.1595 20.995C14.9681 20.1496 16.4979 18.5192 17.5805 16.526C18.6615 14.5354 19.2642 12.2404 19.2642 10.1433C19.2642 6.04748 16.0057 2.75 12.0142 2.75ZM12.0142 7.75C10.7715 7.75 9.76416 8.75736 9.76416 10C9.76416 11.2426 10.7715 12.25 12.0142 12.25C13.2568 12.25 14.2642 11.2426 14.2642 10C14.2642 8.75736 13.2568 7.75 12.0142 7.75ZM8.26416 10C8.26416 7.92893 9.94309 6.25 12.0142 6.25C14.0852 6.25 15.7642 7.92893 15.7642 10C15.7642 12.0711 14.0852 13.75 12.0142 13.75C9.94309 13.75 8.26416 12.0711 8.26416 10Z" fill="white"/>
</g>
</svg>
