<svg width="25" height="24" viewBox="0 0 25 24" fill="none" xmlns="http://www.w3.org/2000/svg">
<g id="Outline / Call / Phone Rounded">
<path id="Vector" fill-rule="evenodd" clip-rule="evenodd" d="M6.02161 3.40686C7.70168 1.72679 10.5368 1.85451 11.7066 3.95063L12.3557 5.11356C13.1196 6.48238 12.794 8.20946 11.6757 9.34143C11.6608 9.36184 11.5819 9.47677 11.5721 9.67758C11.5595 9.93391 11.6506 10.5267 12.569 11.4451C13.4871 12.3632 14.0798 12.4545 14.3362 12.442C14.5372 12.4322 14.6522 12.3533 14.6727 12.3383C15.8046 11.2201 17.5317 10.8945 18.9005 11.6584L20.0635 12.3075C22.1596 13.4773 22.2873 16.3124 20.6072 17.9925C19.7086 18.8911 18.5137 19.6896 17.1095 19.7429C15.0285 19.8218 11.5733 19.2844 8.15151 15.8626C4.72972 12.4408 4.19234 8.98556 4.27122 6.90463C4.32446 5.50044 5.12295 4.30552 6.02161 3.40686ZM10.3968 4.68163C9.79779 3.60828 8.1881 3.36169 7.08227 4.46752C6.30692 5.24287 5.80286 6.09868 5.77015 6.96146C5.70436 8.6968 6.1328 11.7226 9.21217 14.8019C12.2915 17.8813 15.3173 18.3097 17.0526 18.2439C17.9154 18.2112 18.7712 17.7072 19.5466 16.9318C20.6524 15.826 20.4058 14.2163 19.3325 13.6173L18.1695 12.9683C17.4461 12.5645 16.43 12.7023 15.7167 13.4156L15.7165 13.4158C15.6464 13.4858 15.2006 13.9018 14.4091 13.9403C13.5989 13.9797 12.6182 13.6156 11.5083 12.5058C10.3981 11.3956 10.0342 10.4146 10.0739 9.60423C10.1126 8.81271 10.5288 8.36711 10.5985 8.29746L10.5985 8.29743C11.3118 7.58411 11.4496 6.56797 11.0458 5.84456L10.3968 4.68163Z" fill="white"/>
</g>
</svg>
