<svg width="44" height="52" viewBox="0 0 44 52" fill="none" xmlns="http://www.w3.org/2000/svg">
<path d="M44 26C44.0016 26.6791 43.8275 27.347 43.4946 27.9389C43.1617 28.5307 42.6812 29.0263 42.1 29.3775L6.08 51.4125C5.47272 51.7844 4.77717 51.9874 4.0652 52.0006C3.35322 52.0138 2.65064 51.8367 2.03 51.4875C1.41527 51.1438 0.903191 50.6426 0.54641 50.0354C0.189629 49.4281 0.00102714 48.7368 0 48.0325V3.96753C0.00102714 3.26324 0.189629 2.57194 0.54641 1.96471C0.903191 1.35747 1.41527 0.856233 2.03 0.512527C2.65064 0.163398 3.35322 -0.0137195 4.0652 -0.000534837C4.77717 0.0126499 5.47272 0.215659 6.08 0.587527L42.1 22.6225C42.6812 22.9737 43.1617 23.4693 43.4946 24.0612C43.8275 24.653 44.0016 25.321 44 26Z" fill="white"/>
</svg>
