<svg width="1259" height="253" viewBox="0 0 1259 253" fill="none" xmlns="http://www.w3.org/2000/svg">
<path d="M1.72107 128.13C1.38676 82.2593 26.4602 37.9074 70.2365 15.6482C132.01 -15.7777 207.62 8.68523 239.139 70.2778C248.481 88.5371 252.901 108 252.883 127.167L253.087 127.556C253.217 146.407 257.637 165.537 266.831 183.482C298.33 245.074 373.959 269.519 435.714 238.111C479.175 216 504.211 172.13 504.248 126.593V127.222C503.933 81.3519 529.006 37 572.764 14.7408C634.537 -16.6851 710.148 7.77782 741.647 69.3704C750.989 87.6297 755.41 107.093 755.391 126.259L755.596 126.648C755.726 145.5 760.146 164.63 769.339 182.574C800.839 244.167 876.468 268.611 938.223 237.204C981.684 215.093 1006.72 171.222 1006.76 125.685V127.222C1006.44 81.3519 1031.51 37 1075.27 14.7408C1137.05 -16.6851 1212.66 7.77782 1244.17 69.3704C1253.52 87.6297 1257.94 107.093 1257.92 126.259" stroke="#B8C4C2" stroke-width="1.5" stroke-miterlimit="10"/>
</svg>
